HIERARCHY
ROOT root
{
	OFFSET 0.000000 0.000000 0.000000
	CHANNELS 6 Xposition Yposition Zposition Zrotation Yrotation Xrotation
	JOINT lhip
	{
		OFFSET 0.058581 -0.082280 -0.017664
		CHANNELS 3 Zrotation Yrotation Xrotation
		JOINT lknee
		{
			OFFSET 0.043451 -0.386469 0.008037
			CHANNELS 3 Zrotation Yrotation Xrotation
			JOINT lankle
			{
				OFFSET -0.014790 -0.426874 -0.037428
				CHANNELS 3 Zrotation Yrotation Xrotation
				JOINT ltoe
				{
					OFFSET 0.041054 -0.060286 0.122042
					CHANNELS 3 Zrotation Yrotation Xrotation
					End Site
					{
						OFFSET 0.000000 0.000000 0.000000
					}
				}
			}
		}
	}
	JOINT rhip
	{
		OFFSET -0.060310 -0.090513 -0.013543
		CHANNELS 3 Zrotation Yrotation Xrotation
		JOINT rknee
		{
			OFFSET -0.043257 -0.383688 -0.004843
			CHANNELS 3 Zrotation Yrotation Xrotation
			JOINT rankle
			{
				OFFSET 0.019056 -0.420046 -0.034562
				CHANNELS 3 Zrotation Yrotation Xrotation
				JOINT rtoe
				{
					OFFSET -0.034840 -0.062106 0.130323
					CHANNELS 3 Zrotation Yrotation Xrotation
					End Site
					{
						OFFSET 0.000000 0.000000 0.000000
					}
				}
			}
		}
	}
	JOINT lowerback
	{
		OFFSET 0.004439 0.124404 -0.038385
		CHANNELS 3 Zrotation Yrotation Xrotation
		JOINT upperback
		{
			OFFSET 0.004488 0.137956 0.026820
			CHANNELS 3 Zrotation Yrotation Xrotation
			JOINT chest
			{
				OFFSET -0.002265 0.056032 0.002855
				CHANNELS 3 Zrotation Yrotation Xrotation
				JOINT lowerneck
				{
					OFFSET -0.013390 0.211636 -0.033468
					CHANNELS 3 Zrotation Yrotation Xrotation
					JOINT upperneck
					{
						OFFSET 0.010113 0.088937 0.050410
						CHANNELS 3 Zrotation Yrotation Xrotation
						End Site
						{
							OFFSET 0.000000 0.000000 0.000000
						}
					}
				}
				JOINT lclavicle
				{
					OFFSET 0.071702 0.114000 -0.018898
					CHANNELS 3 Zrotation Yrotation Xrotation
					JOINT lshoulder
					{
						OFFSET 0.122921 0.045205 -0.019046
						CHANNELS 3 Zrotation Yrotation Xrotation
						JOINT lelbow
						{
							OFFSET 0.255332 -0.015649 -0.022946
							CHANNELS 3 Zrotation Yrotation Xrotation
							JOINT lwrist
							{
								OFFSET 0.265709 0.012698 -0.007375
								CHANNELS 3 Zrotation Yrotation Xrotation
								End Site
								{
									OFFSET 0.000000 0.000000 0.000000
								}
							}
						}
					}
				}
				JOINT rclavicle
				{
					OFFSET -0.082954 0.112472 -0.023707
					CHANNELS 3 Zrotation Yrotation Xrotation
					JOINT rshoulder
					{
						OFFSET -0.113228 0.046853 -0.008472
						CHANNELS 3 Zrotation Yrotation Xrotation
						JOINT relbow
						{
							OFFSET -0.260127 -0.014369 -0.031269
							CHANNELS 3 Zrotation Yrotation Xrotation
							JOINT rwrist
							{
								OFFSET -0.269108 0.006794 -0.006027
								CHANNELS 3 Zrotation Yrotation Xrotation
								End Site
								{
									OFFSET 0.000000 0.000000 0.000000
								}
							}
						}
					}
				}
			}
		}
	}
}
MOTION
Frames: 15
Frame Time: 0.033333
-0.286008 0.396343 0.949716 -92.249105 -5.132143 103.677624 6.500211 -8.947642 -54.587612 -5.876724 19.302611 25.423139 -1.986365 4.077233 -12.011880 0.000000 -0.000000 0.000000 -2.371989 -2.299333 12.356266 -6.180894 6.784686 47.527128 6.825522 -10.377944 19.721174 0.000000 -0.000000 0.000000 -4.873191 13.075066 20.924733 0.058465 -2.457435 -4.180727 1.147127 1.866173 -2.635986 -1.672992 -9.925256 -23.025193 4.424578 -2.829356 -8.787361 -12.681535 9.338171 9.928336 -59.273677 26.247927 3.154953 -130.174543 -77.312911 156.860345 15.609414 -17.476174 -31.151159 6.699356 4.328043 -5.275822 63.975489 7.298844 14.122797 -154.682506 57.927719 -129.451272 -1.698112 22.407683 -18.288125 
-0.431284 0.400296 0.938617 -89.090185 -5.359511 102.101896 3.924725 -10.506641 -50.732896 -7.671698 16.823103 30.866178 1.754172 4.044362 -12.089082 0.000000 -0.000000 0.000000 -0.919431 -1.186025 6.469298 -4.787865 3.488290 67.154837 3.717558 -11.814205 18.524640 0.000000 -0.000000 0.000000 -5.884744 10.249900 22.853184 0.923326 -2.666167 -3.949608 1.280902 1.779263 -2.082051 -0.105482 -9.307448 -25.602306 4.009222 -2.421803 -7.671333 -18.165648 8.065277 6.593627 -58.694758 19.516801 6.422545 -136.302797 -81.860699 161.593516 15.329344 -16.698711 -31.112157 11.908534 4.164087 -3.213261 63.067773 3.776670 15.173933 -134.687813 68.208720 -111.665835 -1.206742 21.406021 -17.035430 
-0.575046 0.402795 0.926086 -85.542097 -6.207182 100.314345 0.188969 -12.180420 -45.759596 -9.233212 13.200111 41.293984 10.585750 7.015470 -18.693165 0.000000 -0.000000 0.000000 -2.199196 -0.651388 -2.726048 -1.626678 -0.734381 84.820679 3.641113 -10.101806 11.917053 0.000000 -0.000000 0.000000 -6.568252 7.482595 25.704908 1.629730 -3.120518 -4.964363 0.800063 0.654561 -1.099757 1.950789 -7.476639 -28.586810 2.841638 -3.091541 -5.210361 -23.936563 5.365966 2.930254 -55.671258 10.297583 11.658250 -131.161948 -87.863839 154.039269 16.101374 -15.571376 -28.294381 18.166480 3.408282 -2.802781 61.682575 0.183673 16.952917 -82.076904 71.559031 -63.823721 -1.738594 20.138833 -15.259789 
-0.681695 0.403237 0.922000 -82.674967 -6.385078 99.698724 -2.487903 -13.044043 -39.580429 -9.851537 9.448389 45.467558 13.525570 10.399864 -25.854341 0.000000 -0.000000 0.000000 -3.838307 -0.004781 -13.008075 0.368532 -4.999511 94.512575 4.137024 -9.141272 6.804075 0.000000 -0.000000 0.000000 -6.173254 4.704890 27.076275 1.879858 -2.952770 -5.555733 0.117715 -0.358081 -0.963605 2.659309 -5.845053 -30.252341 2.136081 -4.411084 -3.534806 -27.250383 2.088993 0.892317 -53.477244 2.730725 15.525555 43.555931 -87.877085 -22.915546 16.804681 -14.626780 -26.378224 22.672062 2.895030 -2.025177 60.119013 -2.432151 17.372792 -51.282943 64.134766 -37.707270 -4.550473 19.190300 -14.157900 
-0.867368 0.402185 0.928801 -78.812218 -4.727656 97.825918 -5.972659 -8.670044 -21.040188 -10.163552 -2.233711 41.649939 12.439726 13.493592 -33.479972 0.000000 -0.000000 0.000000 -5.199142 -1.482163 -29.816472 1.359106 -9.170450 99.393610 4.291457 -8.082703 -1.760304 0.000000 -0.000000 0.000000 -4.078493 -0.807347 29.901811 1.363732 -1.370979 -8.229898 0.414817 -1.821622 -0.259338 1.509117 -4.635418 -30.875014 2.204327 -5.245975 -1.767844 -26.657097 -1.626405 -0.761699 -56.780219 -8.149249 17.920256 120.185216 -84.614545 -97.437672 19.081919 -13.971176 -26.968973 24.683535 1.530855 0.335521 58.887915 -8.244626 14.226810 -28.684698 54.663811 -20.241514 -9.169385 18.456323 -14.834610 
-1.021395 0.402193 0.943679 -76.048041 -2.667193 97.592579 -3.728043 -4.140808 -5.780123 -9.500593 -11.720797 33.348566 6.498715 11.961714 -30.967766 0.000000 -0.000000 0.000000 -6.053587 -2.756244 -40.559760 -0.705782 -12.329599 92.805820 5.324501 -6.211954 -8.103069 0.000000 -0.000000 0.000000 -3.038683 -6.124771 28.985279 2.083806 -0.501209 -9.019811 1.540937 -2.717364 -0.109716 -0.018784 -2.854167 -30.008752 2.498802 -4.850958 -1.309323 -23.386019 -1.063586 -1.165672 -62.552726 -14.948662 19.892714 154.352786 -74.065109 -129.723583 20.840920 -12.723188 -33.321177 23.318029 -2.342303 1.883972 56.566311 -13.554829 12.688270 -17.979800 56.877189 -6.940525 -9.224500 18.985427 -14.770917 
-1.180361 0.403018 0.964885 -74.528151 -0.748041 98.162568 1.667687 -1.277211 6.299068 -8.502098 -17.507129 26.183957 -4.624122 8.220420 -15.780056 0.000000 -0.000000 0.000000 -6.963090 -2.424355 -46.614658 -2.516901 -16.541123 77.776843 5.224602 -4.779624 -12.021791 0.000000 -0.000000 0.000000 -1.621261 -10.347145 25.556938 2.906751 -0.298480 -7.802603 2.555716 -3.689827 -0.717061 -1.441582 0.138367 -28.377561 2.471264 -4.587613 -2.055461 -20.795522 0.716168 -1.628978 -64.550599 -19.971020 21.678756 164.063874 -61.611731 -138.086900 21.660677 -13.467075 -39.795807 21.150264 -7.092801 3.768171 53.203197 -17.873875 11.411972 -6.878576 62.390887 7.910763 -10.004350 19.601309 -16.992988 
-1.342979 0.403018 0.986785 -74.620391 0.465573 98.520283 6.969170 1.711499 15.161238 -5.641210 -18.326542 21.044280 -14.859438 6.411866 15.176767 0.000000 -0.000000 0.000000 -6.979595 -0.918857 -47.978393 -2.367052 -19.529825 56.526085 3.252240 -3.770503 -13.479966 0.000000 -0.000000 0.000000 -0.113893 -13.535694 21.462359 2.712660 -0.043774 -5.276440 3.245284 -4.111940 -2.652154 -3.264615 0.883553 -24.701742 3.896189 -2.375487 -4.316366 -18.481985 2.547130 -1.023456 -63.407202 -22.788177 20.159000 168.716179 -51.466849 -140.030646 20.507220 -14.263961 -39.206868 17.309980 -9.630214 7.708026 53.849674 -21.323104 8.335342 1.408122 66.164820 18.014101 -11.014784 19.815390 -20.179671 
-1.503782 0.401388 1.000784 -75.938218 0.752641 98.157814 7.791227 1.620419 21.817133 -4.441647 -20.703111 23.312297 -16.529798 6.842971 28.437003 0.000000 -0.000000 0.000000 -6.294808 1.202880 -46.138851 -0.565614 -18.677992 33.599313 3.318464 -4.706621 -13.613654 0.000000 -0.000000 0.000000 0.918406 -15.068166 18.570367 1.916255 -0.158685 -3.659349 3.738769 -3.878831 -3.914872 -5.386100 -1.057728 -20.900901 5.748072 1.485793 -6.633138 -15.803238 4.014420 0.330055 -62.110780 -23.667368 17.490096 170.458756 -45.426407 -140.823651 20.566620 -14.289512 -39.758008 13.034363 -9.954945 11.174654 57.360449 -24.200157 6.407535 1.716406 69.536648 19.258854 -10.353712 20.403548 -20.306797 
-1.660815 0.401234 1.002541 -76.940506 0.246967 96.910120 5.801719 0.337286 23.657812 -6.604088 -21.511113 38.633072 -15.744447 7.290602 27.637628 0.000000 -0.000000 0.000000 -4.747230 2.072549 -43.385956 -1.470872 -16.874128 18.357186 4.276177 -5.516442 -14.034747 0.000000 -0.000000 0.000000 0.549137 -14.766847 18.124779 2.004393 -0.725888 -3.377677 3.746123 -3.738288 -3.668498 -6.437340 -0.813107 -20.457070 5.730062 1.945473 -7.358140 -14.010363 5.142059 1.081824 -61.516979 -22.599702 16.211188 170.097343 -46.589363 -140.819208 21.185340 -14.116503 -41.126036 12.106942 -10.503228 11.545278 58.900144 -25.006812 6.146191 -1.724416 72.729644 17.521375 -9.237868 20.660560 -20.368392 
-1.814351 0.403230 0.993131 -77.907973 -0.191099 95.634225 4.863603 0.130769 21.315039 -9.448008 -18.741400 57.759239 -16.131659 7.925734 31.340696 0.000000 -0.000000 0.000000 -2.903335 2.229120 -42.655501 -2.507725 -15.509120 17.564093 3.025848 -5.067051 -14.644888 0.000000 -0.000000 0.000000 0.150937 -12.886110 18.420402 2.597966 -0.830281 -3.049780 3.478056 -4.195599 -3.578989 -6.700073 -0.146360 -21.202228 4.553960 1.057435 -7.407096 -14.838318 5.164227 2.060011 -60.596341 -19.200397 15.326289 168.046664 -54.216979 -139.534857 20.990214 -13.284485 -39.433051 14.458060 -10.357503 9.773270 58.947651 -23.781654 6.186936 -10.092462 73.845903 10.211699 -7.771532 20.134532 -20.508468 
-1.965003 0.405344 0.977444 -79.843092 0.301063 94.006618 5.275012 0.517579 16.631086 -11.119783 -13.370317 76.319725 -13.804151 8.505447 29.244946 0.000000 -0.000000 0.000000 -1.400376 4.727763 -41.676432 -1.450297 -13.740385 26.486869 0.096482 -4.606622 -14.881545 0.000000 -0.000000 0.000000 0.423175 -11.020000 20.307754 3.103303 0.180609 -3.829039 2.979974 -4.092794 -3.374214 -6.230396 -0.259304 -22.819259 2.861415 0.697237 -6.005583 -17.761312 4.631932 2.585016 -59.116677 -14.145819 14.248872 163.005801 -65.467477 -135.955380 19.688341 -13.364814 -35.394153 18.545080 -8.421412 6.956155 57.951021 -20.800100 6.842357 -19.835723 71.790463 -0.208616 -6.438585 19.523863 -20.251249 
-2.111889 0.410271 0.960574 -82.674497 1.374182 92.421930 6.401787 -0.210040 9.035066 -10.550443 -6.240913 91.797840 -9.435162 8.906248 22.424543 0.000000 -0.000000 0.000000 2.039046 8.489849 -39.599897 -0.350496 -10.745181 39.595301 -5.673120 -6.624024 -16.433106 0.000000 -0.000000 0.000000 0.476851 -8.982000 22.471713 3.959734 1.559086 -4.301438 2.480136 -3.267124 -2.879119 -5.335430 0.109331 -25.817846 0.957893 0.043666 -3.574792 -21.213711 4.193300 2.139010 -57.723140 -9.098311 13.316293 142.809935 -77.961697 -117.891089 17.946418 -13.449604 -31.626968 23.591857 -4.374010 4.758851 55.949709 -15.143123 9.225157 -29.508757 66.731775 -10.579008 -5.870536 18.676315 -19.311819 
-2.253751 0.416808 0.953282 -85.020353 2.112811 92.216407 7.547312 -2.768625 -4.084059 -9.980633 0.736546 102.797885 -5.243300 8.167508 13.844999 0.000000 -0.000000 0.000000 6.350725 12.115842 -32.952468 -0.004131 -8.905394 45.939461 -9.865562 -11.202426 -22.135838 0.000000 -0.000000 0.000000 0.070491 -6.134580 23.372868 5.165825 1.770811 -4.196909 2.615667 -2.333346 -3.050271 -4.361843 1.241591 -28.679282 -1.301322 -0.516850 -1.888180 -23.735390 4.448623 2.163113 -57.367671 -4.294586 12.159252 63.860347 -82.035087 -41.716705 16.198490 -13.031056 -29.641696 26.962594 0.076540 4.014877 53.331265 -7.400198 12.033856 -35.134285 63.653913 -15.693724 -6.073685 18.247245 -19.995972 
-2.396987 0.420956 0.958105 -86.625690 0.911348 92.824408 7.191641 -4.872421 -19.736195 -7.957616 5.162064 105.849620 -1.476383 8.052544 5.129464 0.000000 -0.000000 0.000000 9.963209 10.131270 -21.095037 0.473030 -4.411490 43.306678 -10.685474 -13.646157 -29.582251 0.000000 -0.000000 0.000000 -1.259178 -1.852538 22.548161 5.700958 0.007534 -4.974966 2.827938 -1.361778 -3.069041 -3.546546 1.239284 -29.137528 -1.822708 -0.730081 -0.960500 -23.364138 5.314510 3.148563 -56.837699 2.464259 9.732624 16.999230 -80.975631 4.162643 14.501401 -12.991124 -28.246445 25.443842 2.497691 3.018357 54.932092 -2.017880 12.582030 -45.967036 68.818881 -24.807528 -5.766546 18.709306 -21.032740 
